# xmcd
# 
# Track frame offsets:
#     150
#     19332
#     38857
#     56902
#     74947
#     94280
#     115680
#     132812
#     152865
#     175897
#     200187
# 
# Disc length: 3307
# 
# Revision: 8
# Processed by: cddbd v1.5.2PL0 Copyright (c) Steve Scherf et al.
# Submitted via: fre:ac v1.0.17
# 
DISCID=a90ce90b
DTITLE=Larry Carlton - Deep Into It
DYEAR=2001
DGENRE=Jazz
TTITLE0=Put It Where You Want It
TTITLE1=Deep Into It
TTITLE2=Don't Break My Heart
TTITLE3=I Still Believe
TTITLE4=Morning Magic
TTITLE5=It's A Groove Thang
TTITLE6=Closer Home
TTITLE7=I Can't Tell You Why
TTITLE8=Like Butta'
TTITLE9=Roll With It
TTITLE10=Put It Where You Want It (Extended Version)
EXTD=YEAR: 2001
EXTT0=
EXTT1=
EXTT2=
EXTT3=
EXTT4=
EXTT5=
EXTT6=
EXTT7=
EXTT8=
EXTT9=
EXTT10=
PLAYORDER=
